<?xml version="1.0" encoding="UTF-8"?>
<svg id="Layer_2" data-name="Layer 2" xmlns="http://www.w3.org/2000/svg" viewBox="0 0 91.87 24">
  <defs>
    <style>
      .cls-1 {
        fill: #fff;
      }

      .cls-2 {
        fill: #231f20;
      }
    </style>
  </defs>
  <g id="Layer_1-2" data-name="Layer 1">
    <rect class="cls-2" width="91.87" height="24"/>
    <g>
      <path class="cls-1" d="M9.21,6.4h1.55l3.11,7.31,3.05-7.31h1.55v11.21h-1.64v-6.99h-.04l-2.27,5.38h-1.37l-2.27-5.38h-.03v6.99h-1.64V6.4Z"/>
      <path class="cls-1" d="M23.22,12.99l-3.27-6.6h1.74l2.3,4.97,2.3-4.97h1.74l-3.27,6.6v4.61h-1.55v-4.61Z"/>
      <path class="cls-1" d="M33.36,6.4h4.24c.9,0,1.64,.25,2.21,.74,.69,.56,1.05,1.36,1.08,2.39-.02,1.52-.72,2.56-2.1,3.11l2.51,4.97h-1.95l-2.25-4.79h-2.11v4.79h-1.64V6.4Zm1.64,4.91h2.49c.62,0,1.08-.2,1.39-.55,.3-.33,.46-.75,.46-1.23,0-.59-.19-1.01-.54-1.27-.28-.23-.68-.35-1.21-.35h-2.58v3.41Z"/>
      <path class="cls-1" d="M43.15,6.4h1.64v11.21h-1.64V6.4Z"/>
      <path class="cls-1" d="M50.92,11.44h3.86v2.28c-.02,1.12-.39,2.06-1.12,2.82-.73,.75-1.65,1.14-2.75,1.16-.85-.02-1.57-.24-2.14-.65-.58-.39-1-.85-1.26-1.37-.08-.17-.15-.33-.22-.48-.06-.16-.11-.36-.15-.6-.07-.45-.11-1.32-.11-2.6s.04-2.17,.11-2.61c.08-.44,.2-.8,.37-1.07,.26-.52,.68-.98,1.26-1.38,.57-.41,1.28-.62,2.14-.63,1.05,0,1.9,.33,2.56,.96,.66,.64,1.08,1.42,1.25,2.36h-1.74c-.13-.45-.38-.84-.73-1.16-.37-.3-.82-.46-1.34-.47-.39,0-.72,.09-1,.24-.28,.15-.51,.35-.69,.58-.21,.24-.36,.55-.42,.93-.08,.4-.12,1.15-.12,2.26s.04,1.85,.12,2.24c.07,.39,.21,.71,.43,.95,.17,.23,.4,.42,.69,.56,.28,.17,.61,.25,1,.25,.64,0,1.17-.23,1.59-.68,.42-.43,.63-1,.64-1.7v-.59h-2.22v-1.6Z"/>
      <path class="cls-1" d="M63.14,12.71h-4.31v4.9h-1.64V6.4h1.64v4.81h4.31V6.4h1.64v11.21h-1.64v-4.9Z"/>
      <path class="cls-1" d="M69.42,7.9h-2.98v-1.51h7.6v1.51h-2.98v9.7h-1.64V7.9Z"/>
      <path class="cls-1" d="M75.78,14.89c.87,.74,1.89,1.11,3.09,1.12,1.41-.02,2.13-.54,2.15-1.56,0-.84-.46-1.34-1.42-1.51-.44-.06-.92-.13-1.44-.21-.93-.16-1.64-.52-2.13-1.07-.5-.57-.75-1.26-.75-2.08,0-.98,.31-1.77,.94-2.37,.61-.59,1.48-.9,2.6-.91,1.35,.03,2.52,.42,3.52,1.16l-.92,1.4c-.81-.55-1.71-.84-2.69-.86-.51,0-.93,.13-1.27,.39-.35,.27-.53,.68-.54,1.22,0,.32,.12,.62,.37,.88,.24,.27,.63,.45,1.17,.55,.3,.05,.71,.11,1.22,.18,1.02,.14,1.77,.52,2.26,1.13,.48,.6,.72,1.3,.72,2.09-.05,2.14-1.32,3.23-3.81,3.26-1.61,0-2.99-.51-4.14-1.53l1.08-1.28Z"/>
    </g>
  </g>
</svg>